#!OML:ASF E:\Style4\Style4.ASF
:FULLY-SPECIFIED
:DEGREES
1003
root 0.95038 17.8134 -1.91618 0.456067 -22.7096 1.18339
lowerback 11.1767 -0.502246 -10.0499
upperback 8.29069 -1.60764 -9.0593
thorax 2.55131 -1.05871 -3.80383
lowerneck 1.28769 6.22415 -2.60517
upperneck 10.5524 7.22322 13.5147
head 2.26956 3.87006 4.58821
rclavicle 6.67916e-014 3.49861e-014
rhumerus 34.51 -7.95972 -28.1177
rradius 85.4326
rwrist -34.7841
rhand 46.9365 -5.2818
rfingers 7.12502
rthumb 67.83 -6.90605
lclavicle 6.67916e-014 3.49861e-014
lhumerus 43.3104 -6.29202 51.1007
lradius 58.0716
lwrist -22.3463
lhand 24.2273 41.835
lfingers 7.12502
lthumb 48.4508 63.8348
rfemur -21.0308 10.1093 15.0775
rtibia 29.2873
rfoot -9.24235 -6.83077
rtoes -14.3126
lfemur -14.6601 11.3124 -21.3613
ltibia 31.1521
lfoot -20.3528 14.946
ltoes -7.83094
1004
root 0.933006 17.7977 -1.93184 0.423532 -21.9617 1.28537
lowerback 11.3578 -0.285022 -9.85272
upperback 8.5837 -1.29589 -9.16221
thorax 2.76037 -0.900126 -4.05972
lowerneck 0.663169 5.7586 -2.52212
upperneck 10.4714 6.57713 13.8412
head 2.39239 3.58638 4.69474
rclavicle 7.95139e-015 -5.40694e-014
rhumerus 35.3188 -9.05747 -27.8212
rradius 84.515
rwrist -34.5037
rhand 46.6035 -5.11243
rfingers 7.12502
rthumb 67.5868 -7.29168
lclavicle 7.95139e-015 -5.40694e-014
lhumerus 44.1731 -7.1081 51.0245
lradius 58.4512
lwrist -22.2378
lhand 24.2994 41.7172
lfingers 7.12502
lthumb 48.5172 63.6851
rfemur -21.2484 9.80158 15.0113
rtibia 29.9206
rfoot -9.49704 -7.31236
rtoes -14.694
lfemur -14.9945 11.0474 -21.4159
ltibia 31.5255
lfoot -20.1562 14.6337
ltoes -8.54503
1005
root 0.916612 17.783 -1.94566 0.336543 -21.1957 1.49168
lowerback 11.5274 -0.101747 -9.75167
upperback 8.86318 -1.03563 -9.26648
thorax 2.96884 -0.769686 -4.26095
lowerneck 0.128005 5.33745 -2.53769
upperneck 10.4503 5.98249 14.1888
head 2.5118 3.32432 4.81958
rclavicle -6.36111e-014 -2.8625e-014
rhumerus 36.2675 -10.0367 -27.6297
rradius 83.5127
rwrist -34.1316
rhand 46.5367 -5.00691
rfingers 7.12502
rthumb 67.5378 -7.29592
lclavicle -6.36111e-014 -2.8625e-014
lhumerus 44.9011 -7.84675 50.9344
lradius 58.8936
lwrist -22.1438
lhand 24.2496 41.6835
lfingers 7.12502
lthumb 48.4714 63.6733
rfemur -21.4678 9.45206 14.8338
rtibia 30.5812
rfoot -9.78312 -7.75565
rtoes -14.965
lfemur -15.3088 10.7912 -21.5906
ltibia 31.9012
lfoot -19.9677 14.3548
ltoes -9.39409
1006
root 0.897117 17.7657 -1.96176 0.319877 -20.417 1.62236
lowerback 11.5801 -0.148933 -9.95667
upperback 8.78521 -1.12415 -9.09656
thorax 2.86449 -0.820719 -3.95203
lowerneck 0.874672 5.2655 -2.99146
upperneck 10.234 5.91435 14.3469
head 2.30518 3.2451 4.91297
rclavicle 4.77083e-015 1.27222e-014
rhumerus 37.7668 -9.97412 -27.4126
rradius 82.576
rwrist -33.7542
rhand 46.3513 -5.10733
rfingers 7.12502
rthumb 67.4013 -7.69867
lclavicle 4.77083e-015 1.27222e-014
lhumerus 44.4318 -8.20756 51.1804
lradius 59.3877
lwrist -22.0312
lhand 24.3098 41.669
lfingers 7.12502
lthumb 48.5268 63.6322
rfemur -21.7377 9.13769 14.7338
rtibia 31.2565
rfoot -10.0574 -8.2395
rtoes -15.3045
lfemur -15.6789 10.5829 -21.6786
ltibia 32.2739
lfoot -19.877 13.8804
ltoes -9.75162
1007
root 0.875524 17.7473 -1.97722 0.325276 -19.6198 1.68091
lowerback 11.702 -0.100391 -9.94671
upperback 8.85667 -1.0632 -9.01637
thorax 2.87661 -0.790326 -3.87717
lowerneck 1.11308 5.0275 -3.18594
upperneck 10.0247 5.6065 14.5593
head 2.21597 3.07793 4.99803
rclavicle -1.11319e-014 -6.36111e-015
rhumerus 39.011 -10.3158 -27.3361
rradius 81.5881
rwrist -33.2087
rhand 46.1373 -5.06093
rfingers 7.12502
rthumb 67.2428 -7.99647
lclavicle -1.11319e-014 -6.36111e-015
lhumerus 44.498 -8.67707 51.2928
lradius 59.8637
lwrist -21.9647
lhand 24.6363 41.6582
lfingers 7.12502
lthumb 48.8271 63.4757
rfemur -21.9838 8.82275 14.7156
rtibia 31.9344
rfoot -10.3827 -8.71861
rtoes -15.267
lfemur -16.0479 10.38 -21.684
ltibia 32.6506
lfoot -19.6863 13.3269
ltoes -9.60455
1008
root 0.855661 17.7303 -1.98949 0.323289 -18.7958 1.80901
lowerback 11.8285 0.103818 -9.6647
upperback 9.14647 -0.75001 -9.14173
thorax 3.1148 -0.624237 -4.20684
lowerneck 0.554742 4.53006 -3.03275
upperneck 9.98093 4.91141 14.8827
head 2.35455 2.77158 5.08706
rclavicle -2.54444e-014 -4.13472e-014
rhumerus 39.7732 -11.2708 -27.342
rradius 80.5086
rwrist -32.5114
rhand 45.9306 -4.66773
rfingers 7.12502
rthumb 67.089 -7.93115
lclavicle -2.54444e-014 -4.13472e-014
lhumerus 45.3388 -9.4871 51.192
lradius 60.285
lwrist -21.9928
lhand 24.8139 41.5473
lfingers 7.12502
lthumb 48.9902 63.2845
rfemur -22.2438 8.4261 14.6169
rtibia 32.6132
rfoot -10.6543 -9.21176
rtoes -15.6757
lfemur -16.4323 10.113 -21.7799
ltibia 33.0576
lfoot -19.5066 12.8356
ltoes -9.66591
1009
root 0.833642 17.7134 -2.0046 0.344844 -17.9345 1.90058
lowerback 11.8266 -0.239875 -10.2017
upperback 8.72974 -1.28629 -8.68517
thorax 2.6871 -0.907903 -3.35181
lowerneck 2.3867 4.84384 -4.1482
upperneck 9.69023 5.38027 14.902
head 1.87927 2.88422 5.22041
rclavicle 2.06736e-014 -1.90833e-014
rhumerus 42.079 -10.0335 -27.3013
rradius 79.491
rwrist -32.03
rhand 45.7037 -4.63845
rfingers 7.12502
rthumb 66.9192 -8.25663
lclavicle 2.06736e-014 -1.90833e-014
lhumerus 43.5583 -9.29046 51.9005
lradius 60.7314
lwrist -22.2648
lhand 24.8685 41.4935
lfingers 7.12502
lthumb 49.0404 63.2059
rfemur -22.5226 7.99597 14.5664
rtibia 33.2944
rfoot -10.9557 -9.63541
rtoes -15.9115
lfemur -16.8449 9.8233 -21.8408
ltibia 33.4696
lfoot -19.3582 12.5164
ltoes -10.6967
1010
root 0.809436 17.6956 -2.022 0.425014 -17.0202 1.89323
lowerback 12.0133 -0.0879696 -9.86611
upperback 8.87786 -1.06223 -8.71885
thorax 2.73095 -0.780536 -3.59529
lowerneck 2.15492 4.37572 -4.01629
upperneck 9.64912 4.73861 15.141
head 1.9642 2.58705 5.28264
rclavicle -7.15625e-014 -9.85972e-014
rhumerus 42.7575 -10.5948 -27.3299
rradius 78.5128
rwrist -31.3018
rhand 45.3419 -4.77496
rfingers 7.12502
rthumb 66.6465 -8.94761
lclavicle -7.15625e-014 -9.85972e-014
lhumerus 44.1194 -10.1814 51.9093
lradius 61.1908
lwrist -22.2578
lhand 24.7543 41.5008
lfingers 7.12502
lthumb 48.9355 63.2651
rfemur -22.8255 7.53509 14.6312
rtibia 34
rfoot -11.3508 -10.0481
rtoes -15.6336
lfemur -17.2993 9.47799 -21.788
ltibia 33.8768
lfoot -19.1866 12.1732
ltoes -11.2912
1011
root 0.782499 17.6753 -2.03789 0.425807 -16.1195 1.98998
lowerback 12.2629 0.0454548 -9.75747
upperback 8.96414 -0.89913 -8.68954
thorax 2.68526 -0.691669 -3.63905
lowerneck 2.18045 3.99265 -4.0244
upperneck 9.49384 4.22891 15.3069
head 1.95908 2.33467 5.33458
rclavicle 4.29375e-014 6.04305e-014
rhumerus 43.5433 -10.9475 -27.3608
rradius 77.5606
rwrist -30.4793
rhand 44.898 -4.69821
rfingers 7.12502
rthumb 66.309 -9.53317
lclavicle 4.29375e-014 6.04305e-014
lhumerus 44.3999 -10.9861 51.9354
lradius 61.7605
lwrist -22.2059
lhand 24.6918 41.5717
lfingers 7.12502
lthumb 48.878 63.3642
rfemur -23.0805 7.09964 14.5925
rtibia 34.7206
rfoot -11.7303 -10.496
rtoes -15.2243
lfemur -17.6971 9.11204 -21.83
ltibia 34.2896
lfoot -19.0146 11.739
ltoes -11.3639
1012
root 0.754404 17.656 -2.05199 0.454209 -15.2051 2.21736
lowerback 12.3823 0.165016 -9.76997
upperback 9.05037 -0.743682 -8.67296
thorax 2.71507 -0.613323 -3.63177
lowerneck 2.27769 3.62365 -4.10893
upperneck 9.28811 3.74311 15.4975
head 1.92319 2.08729 5.40433
rclavicle -3.49861e-014 -8.90555e-014
rhumerus 44.3933 -11.2674 -27.4463
rradius 76.5239
rwrist -29.6342
rhand 44.5906 -4.44832
rfingers 7.12502
rthumb 66.0733 -9.73044
lclavicle -3.49861e-014 -8.90555e-014
lhumerus 44.8075 -11.8056 51.7872
lradius 62.1597
lwrist -22.0727
lhand 24.7886 41.7184
lfingers 7.12502
lthumb 48.967 63.4671
rfemur -23.3975 6.6322 14.4034
rtibia 35.4564
rfoot -12.114 -10.9295
rtoes -15.2487
lfemur -18.1587 8.75038 -22.0241
ltibia 34.7106
lfoot -18.7631 11.3636
ltoes -12.1725
1013
root 0.726388 17.6362 -2.06841 0.53732 -14.2463 2.37504
lowerback 12.5075 0.264564 -9.69272
upperback 9.13568 -0.606516 -8.63037
thorax 2.73794 -0.540288 -3.64383
lowerneck 2.26162 3.2129 -4.2252
upperneck 9.22033 3.1818 15.7263
head 1.95423 1.81159 5.49695
rclavicle -2.22639e-014 9.54166e-015
rhumerus 45.2142 -11.5546 -27.5767
rradius 75.5129
rwrist -28.7924
rhand 44.4244 -4.35014
rfingers 7.12502
rthumb 65.9452 -9.87037
lclavicle -2.22639e-014 9.54166e-015
lhumerus 45.1949 -12.6654 51.4684
lradius 62.5193
lwrist -21.8138
lhand 24.5631 41.6902
lfingers 7.12502
lthumb 48.7597 63.5406
rfemur -23.7487 6.16016 14.2812
rtibia 36.182
rfoot -12.5024 -11.3527
rtoes -15.1533
lfemur -18.6803 8.38585 -22.1488
ltibia 35.1277
lfoot -18.598 10.9351
ltoes -12.7218
